<svg xmlns="http://www.w3.org/2000/svg" xmlns:xlink="http://www.w3.org/1999/xlink" width="500" zoomAndPan="magnify" viewBox="0 0 375 374.999991" height="500" preserveAspectRatio="xMidYMid meet" version="1.0"><rect x="-37.5" width="450" fill="#ffffff" y="-37.499999" height="449.999989" fill-opacity="1"/><rect x="-37.5" width="450" fill="#2b2c34" y="-37.499999" height="449.999989" fill-opacity="1"/><path fill="#fffffe" d="M 370.105469 40.402344 L 342.832031 40.402344 C 342.820312 38.191406 341.976562 35.988281 340.292969 34.304688 C 338.664062 32.675781 336.546875 31.851562 334.410156 31.789062 L 334.410156 4.710938 C 334.410156 2.960938 333.363281 1.382812 331.742188 0.707031 C 330.140625 0.0390625 328.265625 0.394531 327.023438 1.628906 L 297.59375 30.753906 C 296.765625 31.574219 296.300781 32.6875 296.304688 33.851562 L 296.375 65.960938 L 282.941406 79.398438 C 252.90625 52.414062 213.226562 35.960938 169.769531 35.960938 C 76.296875 35.960938 0.25 112.003906 0.25 205.480469 C 0.25 298.957031 76.296875 375 169.769531 375 C 263.242188 375 339.289062 298.953125 339.289062 205.480469 C 339.289062 161.695312 322.601562 121.734375 295.253906 91.625 L 308.683594 78.191406 L 340.765625 78.125 C 341.90625 78.121094 343 77.671875 343.808594 76.871094 L 373.15625 47.824219 C 374.40625 46.585938 374.785156 44.714844 374.117188 43.089844 C 373.449219 41.460938 371.863281 40.402344 370.105469 40.402344 Z M 308.921875 205.480469 C 308.921875 282.210938 246.5 344.632812 169.769531 344.632812 C 93.039062 344.632812 30.617188 282.210938 30.617188 205.480469 C 30.617188 128.753906 93.039062 66.328125 169.769531 66.328125 C 204.855469 66.328125 236.925781 79.410156 261.429688 100.914062 L 235.308594 127.039062 C 217.546875 112.171875 194.6875 103.203125 169.769531 103.203125 C 113.375 103.203125 67.492188 149.082031 67.492188 205.480469 C 67.492188 261.875 113.375 307.753906 169.769531 307.753906 C 226.164062 307.753906 272.046875 261.875 272.046875 205.480469 C 272.046875 180.238281 262.835938 157.121094 247.625 139.261719 L 273.746094 113.136719 C 295.605469 137.726562 308.921875 170.070312 308.921875 205.480469 Z M 169.769531 244.847656 C 191.476562 244.847656 209.140625 227.1875 209.140625 205.480469 C 209.140625 197.601562 206.789062 190.273438 202.789062 184.109375 L 229.140625 157.753906 C 239.671875 170.832031 246.015625 187.421875 246.015625 205.480469 C 246.015625 247.523438 211.8125 281.722656 169.769531 281.722656 C 127.726562 281.722656 93.523438 247.523438 93.523438 205.480469 C 93.523438 163.4375 127.726562 129.234375 169.769531 129.234375 C 187.507812 129.234375 203.8125 135.375 216.78125 145.574219 L 190.367188 171.992188 C 184.367188 168.289062 177.328125 166.109375 169.769531 166.109375 C 148.0625 166.109375 130.398438 183.773438 130.398438 205.480469 C 130.398438 227.1875 148.0625 244.847656 169.769531 244.847656 Z M 169.769531 244.847656 " fill-opacity="1" fill-rule="nonzero"/></svg>